<svg width="24" height="25" viewBox="0 0 24 25" fill="none" xmlns="http://www.w3.org/2000/svg">
<path d="M3.52433 17.7829H20.4695C20.7638 17.7829 21 17.5235 21 17.2005C21 16.8842 20.7638 16.6315 20.4695 16.6315H3.52433C3.23003 16.6315 3 16.8842 3 17.2005C3 17.5235 3.23003 17.7829 3.52433 17.7829ZM3.52433 13.3549H20.4695C20.7638 13.3549 21 13.1053 21 12.7859C21 12.4629 20.7638 12.2065 20.4695 12.2065H3.52433C3.23003 12.2065 3 12.4629 3 12.7859C3 13.1053 3.23003 13.3549 3.52433 13.3549ZM3.52433 8.93359H20.4695C20.7638 8.93359 21 8.68399 21 8.36768C21 8.04834 20.7638 7.79199 20.4695 7.79199H3.52433C3.23003 7.79199 3 8.04834 3 8.36768C3 8.68399 3.23003 8.93359 3.52433 8.93359Z" fill="white"/>
</svg>
