<svg width="24" height="25" viewBox="0 0 24 25" fill="none" xmlns="http://www.w3.org/2000/svg">
<path d="M7.92264 19.5002H16.0636C16.9875 19.5002 17.4295 19.1768 17.4295 18.4666C17.4295 16.6464 15.3594 14.0476 11.9931 14.0476C8.62691 14.0476 6.55678 16.6464 6.55678 18.4666C6.55678 19.1768 6.99447 19.5002 7.92264 19.5002ZM7.72355 18.6811C7.43635 18.6811 7.33764 18.604 7.33764 18.3793C7.33764 17.0555 9.02573 14.8667 11.9931 14.8667C14.9606 14.8667 16.6506 17.0555 16.6506 18.3793C16.6506 18.604 16.55 18.6811 16.2647 18.6811H7.72355ZM11.999 13.0334C13.4708 13.0334 14.6495 11.5995 14.6495 9.81592C14.6495 8.07501 13.4702 6.68066 11.999 6.68066C10.5413 6.68066 9.34463 8.09164 9.35292 9.82556C9.35879 11.6043 10.5315 13.0334 11.999 13.0334ZM11.999 12.2142C10.9726 12.2142 10.1338 11.1687 10.1338 9.82556C10.1236 8.52723 10.9717 7.49762 11.999 7.49762C13.0312 7.49762 13.8686 8.51543 13.8686 9.81592C13.8686 11.159 13.0342 12.2142 11.999 12.2142ZM1.14548 19.5002H6.34311C6.10489 19.3527 5.91107 19.033 5.91608 18.6978H1.04885C0.818632 18.6978 0.730583 18.6072 0.730583 18.3791C0.730583 16.5116 2.57031 14.8318 4.7247 14.8318C5.6461 14.8318 6.47852 15.1043 7.14706 15.6239C7.30346 15.4115 7.48598 15.2255 7.69944 15.0564C6.86427 14.3823 5.83583 14.0293 4.7247 14.0293C2.0174 14.0293 0 16.2036 0 18.4203C0 19.1462 0.381973 19.5002 1.14548 19.5002ZM4.73492 13.1871C6.01468 13.1871 7.04151 11.9376 7.04151 10.3707C7.04151 8.85388 6.00967 7.62244 4.73492 7.62244C3.46689 7.62244 2.42202 8.87051 2.43223 10.3781C2.4381 11.9424 3.45516 13.1871 4.73492 13.1871ZM4.73492 12.3776C3.86527 12.3776 3.16282 11.4971 3.16282 10.3781C3.16282 9.30611 3.86873 8.43191 4.73492 8.43191C5.60783 8.43191 6.31528 9.29429 6.31528 10.3707C6.31528 11.4971 5.60455 12.3776 4.73492 12.3776ZM22.8526 19.5002C23.618 19.5002 24 19.1462 24 18.4203C24 16.2036 21.9806 14.0293 19.2733 14.0293C18.1622 14.0293 17.1338 14.3823 16.2986 15.0564C16.514 15.2255 16.6946 15.4115 16.851 15.6239C17.5215 15.1043 18.3496 14.8318 19.2733 14.8318C21.4297 14.8318 23.2694 16.5116 23.2694 18.3791C23.2694 18.6072 23.1794 18.6978 22.9492 18.6978H18.0819C18.087 19.033 17.8888 19.3527 17.655 19.5002H22.8526ZM19.2651 13.1871C20.5429 13.1871 21.5619 11.9424 21.5678 10.3781C21.576 8.87051 20.5331 7.62244 19.2651 7.62244C17.9903 7.62244 16.9585 8.85388 16.9585 10.3707C16.9585 11.9376 17.9853 13.1871 19.2651 13.1871ZM19.2651 12.3776C18.3935 12.3776 17.6847 11.4971 17.6847 10.3707C17.6847 9.29429 18.3922 8.43191 19.2651 8.43191C20.1313 8.43191 20.8372 9.30611 20.8372 10.3781C20.8372 11.4971 20.1304 12.3776 19.2651 12.3776Z" fill="#666666"/>
</svg>
