<svg width="24" height="25" viewBox="0 0 24 25" fill="none" xmlns="http://www.w3.org/2000/svg">
<path d="M6.03073 21.0002H18.1798C19.5577 21.0002 20.2135 20.5648 20.2135 19.6087C20.2135 17.1585 17.1229 13.6601 12.1085 13.6601C7.08767 13.6601 4 17.1585 4 19.6087C4 20.5648 4.65279 21.0002 6.03073 21.0002ZM5.74022 19.8975C5.31481 19.8975 5.16467 19.7938 5.16467 19.4912C5.16467 17.7092 7.68251 14.7628 12.1085 14.7628C16.528 14.7628 19.0488 17.7092 19.0488 19.4912C19.0488 19.7938 18.9052 19.8975 18.4797 19.8975H5.74022ZM12.1173 12.3827C14.3125 12.3827 16.0705 10.4525 16.0705 8.05157C16.0705 5.70156 14.2986 3.82812 12.1173 3.82812C9.94306 3.82812 8.15816 5.73044 8.16399 8.06164C8.17923 10.459 9.92199 12.3827 12.1173 12.3827ZM12.1173 11.2801C10.5863 11.2801 9.32866 9.8726 9.32866 8.06164C9.31991 6.31681 10.5849 4.93079 12.1173 4.93079C13.6502 4.93079 14.9059 6.30092 14.9059 8.05157C14.9059 9.85961 13.6548 11.2801 12.1173 11.2801Z" fill="#274C69"/>
</svg>
