<svg width="25" height="25" viewBox="0 0 25 25" fill="none" xmlns="http://www.w3.org/2000/svg">
<path d="M4.33337 10.0376C4.33337 13.6575 7.4966 17.2139 12.2668 20.3035C12.4223 20.4003 12.6399 20.5003 12.7981 20.5003C12.9563 20.5003 13.1738 20.4003 13.3326 20.3035C18.0996 17.2139 21.2627 13.6575 21.2627 10.0376C21.2627 7.06467 19.2164 4.95215 16.4799 4.95215C14.9105 4.95215 13.5455 5.757 12.7981 7.00247C12.0626 5.763 10.6856 4.95215 9.11621 4.95215C6.3797 4.95215 4.33337 7.06467 4.33337 10.0376ZM5.40883 10.0376C5.40883 7.6487 6.97842 6.02491 9.10423 6.02491C10.7158 6.02491 11.7214 7.02515 12.3124 8.02042C12.4985 8.30596 12.6219 8.39075 12.7981 8.39075C12.9742 8.39075 13.0857 8.29998 13.281 8.02042C13.9047 7.03713 14.8836 6.02491 16.4919 6.02491C18.6177 6.02491 20.1873 7.6487 20.1873 10.0376C20.1873 13.2934 16.7894 16.7365 12.9535 19.2916C12.8828 19.3416 12.8328 19.377 12.7981 19.377C12.7633 19.377 12.7133 19.3416 12.6486 19.2916C8.8067 16.7365 5.40883 13.2934 5.40883 10.0376Z" fill="#666666"/>
</svg>
