<svg width="16" height="16" viewBox="0 0 16 16" fill="none" xmlns="http://www.w3.org/2000/svg">
<path d="M5.22226 4.15112H5.87339V2.90312C5.87339 2.32064 6.18554 1.98577 6.79601 1.98577H9.18864V4.85903C9.18864 5.42817 9.45776 5.67894 10.0085 5.67894H12.6805V10.3293C12.6805 10.9236 12.3647 11.2467 11.7559 11.2467H10.6175V11.8994H11.7919C12.8094 11.8994 13.3333 11.3699 13.3333 10.3435V5.86918C13.3333 5.36448 13.2243 5.0333 12.891 4.69268L10.0011 1.77528C9.68069 1.44758 9.32764 1.33301 8.8795 1.33301H6.76364C5.74774 1.33301 5.22226 1.86249 5.22226 2.88894V4.15112ZM9.78484 4.77825V2.35491L12.4869 5.08276H10.0857C9.87008 5.08276 9.78484 4.99386 9.78484 4.77825ZM2.66663 12.8994C2.66663 13.9295 3.1852 14.4553 4.208 14.4553H9.23627C10.2591 14.4553 10.7776 13.9258 10.7776 12.8994V8.62448C10.7776 8.05749 10.7018 7.80469 10.3503 7.44588L7.25542 4.31626C6.91681 3.97037 6.6402 3.88891 6.12975 3.88891H4.208C3.19374 3.88891 2.66663 4.41475 2.66663 5.44484V12.8994ZM3.31939 12.8852V5.45538C3.31939 4.87654 3.63153 4.54167 4.24037 4.54167H6.16434V7.71266C6.16434 8.31654 6.4691 8.60456 7.051 8.60456H10.1249V12.8852C10.1249 13.4795 9.80913 13.8026 9.20388 13.8026H4.23674C3.63153 13.8026 3.31939 13.4795 3.31939 12.8852ZM7.12176 7.98652C6.87816 7.98652 6.78072 7.88909 6.78072 7.64553V4.74003L9.99247 7.98652H7.12176Z" fill="#2A8282"/>
</svg>
